<svg width="38" height="38" fill="#585858" viewBox="0 0 812 612" xmlns="http://www.w3.org/2000/svg">
 <g>
  <rect stroke="#585858" stroke-width="28" rx="100" id="svg_3" height="221" width="768.99999" y="302" x="16.00001" fill="#fff"/>
  <ellipse ry="60" rx="60.45449" id="svg_17" cy="414.54479" cx="134.99947" stroke-width="5" stroke="#585858" fill="#fff"/>
  <ellipse ry="60" rx="60.45449" id="svg_18" cy="415.45388" cx="310.45385" stroke-width="5" stroke="#585858" fill="#fff"/>
  <ellipse ry="60" rx="60.45449" id="svg_19" cy="417.27206" cx="484.09006" stroke-width="5" stroke="#585858" fill="#fff"/>
  <ellipse ry="60" rx="60.45449" id="svg_20" cy="416.36297" cx="662.27169" stroke-width="5" stroke="#585858" fill="#fff"/>
  <path id="svg_22" d="m597.94141,212.69178c-0.01657,0 -0.03,-0.01344 -0.03,-0.03l0,0c0.00001,-0.0133 0.00867,-0.0245 0.02064,-0.02842l0,0c0.00042,-0.0113 0.00969,-0.02032 0.02108,-0.02033l0,0c0.00365,0 0.00708,0.00095 0.01005,0.00259l0,0c0.00633,-0.01053 0.01785,-0.01758 0.03104,-0.01759l0,0c0.01974,0.00001 0.03579,0.01578 0.03624,0.0354l0,0c0.01181,0.00402 0.02031,0.01517 0.02032,0.02836l0,0c0,0.01657 -0.01344,0.03 -0.03,0.03l0,0l-0.07937,0l0,0zm0.08301,-0.04963c-0.00256,-0.00048 -0.00432,-0.00281 -0.00408,-0.0054l0,0c0.00009,-0.00086 0.00014,-0.00168 0.00014,-0.00249l0,0c-0.00004,-0.0145 -0.01176,-0.02623 -0.02626,-0.02625l0,0c-0.01125,-0.00001 -0.02081,0.00709 -0.02456,0.01705l0,0c-0.00061,0.00162 -0.00203,0.00282 -0.00374,0.00315l0,0c-0.0017,0.00033 -0.00347,-0.00026 -0.00464,-0.00155l0,0c-0.00208,-0.00227 -0.00493,-0.00366 -0.00817,-0.00366l0,0c-0.00613,0.00001 -0.01108,0.00497 -0.0111,0.01109l0,0c0,0.00068 0.00009,0.00138 0.00023,0.00212l0,0c0.00025,0.00133 -0.00004,0.0027 -0.00082,0.00381l0,0c-0.00078,0.00112 -0.00196,0.00186 -0.00329,0.00207l0,0c-0.0095,0.00157 -0.01676,0.00975 -0.01675,0.01966l0,0c0.00002,0.01105 0.00896,0.01998 0.02001,0.02001l0,0l0.07937,0c0.01105,-0.00003 0.01997,-0.00896 0.02,-0.02001l0,0c0.00002,-0.00979 -0.00705,-0.0179 -0.01636,-0.01962l0,0" stroke-width="2" stroke="#585858" fill="#fff"/>
  <path id="svg_24" d="m512.00964,197.3145c-0.01657,0 -0.03,-0.01344 -0.03,-0.03l0,0c0.00001,-0.0133 0.00867,-0.0245 0.02064,-0.02842l0,0c0.00042,-0.0113 0.00969,-0.02032 0.02108,-0.02033l0,0c0.00365,0 0.00708,0.00095 0.01005,0.00259l0,0c0.00633,-0.01053 0.01785,-0.01758 0.03104,-0.01759l0,0c0.01974,0.00001 0.03579,0.01578 0.03624,0.0354l0,0c0.01181,0.00402 0.02031,0.01517 0.02032,0.02836l0,0c0,0.01657 -0.01344,0.03 -0.03,0.03l0,0l-0.07937,0l0,0zm0.08301,-0.04963c-0.00256,-0.00048 -0.00432,-0.00281 -0.00408,-0.0054l0,0c0.00009,-0.00086 0.00014,-0.00168 0.00014,-0.00249l0,0c-0.00004,-0.0145 -0.01176,-0.02623 -0.02626,-0.02625l0,0c-0.01125,-0.00001 -0.02081,0.00709 -0.02456,0.01705l0,0c-0.00061,0.00162 -0.00203,0.00282 -0.00374,0.00315l0,0c-0.0017,0.00033 -0.00347,-0.00026 -0.00464,-0.00155l0,0c-0.00208,-0.00227 -0.00493,-0.00366 -0.00817,-0.00366l0,0c-0.00613,0.00001 -0.01108,0.00497 -0.0111,0.01109l0,0c0,0.00068 0.00009,0.00138 0.00023,0.00212l0,0c0.00025,0.00133 -0.00004,0.0027 -0.00082,0.00381l0,0c-0.00078,0.00112 -0.00196,0.00186 -0.00329,0.00207l0,0c-0.0095,0.00157 -0.01676,0.00975 -0.01675,0.01966l0,0c0.00002,0.01105 0.00896,0.01998 0.02001,0.02001l0,0l0.07937,0c0.01105,-0.00003 0.01997,-0.00896 0.02,-0.02001l0,0c0.00002,-0.00979 -0.00705,-0.0179 -0.01636,-0.01962l0,0" stroke-width="2" stroke="#585858" fill="#fff"/>
  <rect id="svg_27" height="145.45441" width="178.18165" y="137.36538" x="330.90838" stroke-width="2" stroke="#585858" fill="#585858"/>
  <path id="svg_25" d="m647.68387,227.91089c0.16889,-1.02659 0.26667,-2.06372 0.26667,-3.11137c0,-18.17334 -24.87109,-32.90363 -55.55551,-32.90363c-23.81331,0 -44.07107,8.89188 -51.97329,21.36894c-5.23555,-3.40092 -12.70221,-5.57519 -21.08443,-5.57519c-15.80443,0 -28.61331,7.58626 -28.61331,16.94669c0,1.10556 0.20444,2.1848 0.55111,3.22719c-21.08443,2.05845 -37.21775,12.82452 -37.21775,25.89121c0,14.54077 19.9022,26.32291 44.44441,26.32291l141.11099,0c24.55109,0 44.44441,-11.78213 44.44441,-26.32291c0.00889,-12.90349 -15.68888,-23.59059 -36.3733,-25.84383z" stroke-width="5" stroke="#585858" fill="#fff"/>
  <path stroke-width="8" stroke="#585858" id="svg_31" d="m250.30696,160.78221c0,0 6.87306,-31.17905 0,-41.74085c-6.88116,-10.56179 -9.62552,-17.59707 -24.75596,-22.63369s-9.61743,-4.03284 -20.61918,-3.51763c-21.32258,2.77597 -27.04698,11.05923 -29.79134,14.07943c-2.75247,3.02019 -7.3345,17.09074 -7.3345,20.61726s2.29102,27.16398 4.58203,32.19171l-2.72817,1.00377c-2.29102,29.16264 9.16408,32.68916 9.16408,32.68916c4.12059,27.16398 8.24929,15.59841 8.24929,22.63369s-4.1287,4.53029 -4.1287,4.53029s-3.65915,11.05924 -12.82323,15.0832c-9.16408,4.01508 -60.03604,25.63612 -64.17283,30.16641c-4.13678,4.53917 -3.66725,25.65388 -3.66725,25.65388l218.14876,0c0,0 0.47763,-21.11471 -3.65915,-25.65388c-4.14489,-4.53918 -55.01685,-26.15133 -64.18093,-30.16641c-9.16408,-4.02396 -12.82323,-15.0832 -12.82323,-15.0832s-4.12869,2.50498 -4.12869,-4.53029s4.12869,4.53029 8.25738,-22.63369c0,0 11.447,-3.52652 9.16408,-32.68916l-2.75246,0z" fill="#fff"/>
  <line id="svg_33" y2="289.9358" x2="167.83726" y1="243.81704" x1="151.98393" stroke-width="15" stroke="#585858" fill="none"/>
  <line id="svg_34" y2="291.37701" x2="247.62902" y1="244.29744" x1="269.7276" stroke-width="15" stroke="#585858" fill="none"/>
  <line stroke="#585858" id="svg_35" y2="275.34915" x2="266.97495" y1="275.34915" x1="155.25949" stroke-width="26" fill="none"/>
 </g>
</svg>