<svg width="42" height="42" fill="#585858" viewBox="0 0 512 248" xmlns="http://www.w3.org/2000/svg" clip-rule="evenodd" fill-rule="evenodd" image-rendering="optimizeQuality" text-rendering="geometricPrecision" shape-rendering="geometricPrecision">

 <g>
  <title>Layer 1</title>
  <path id="svg_1" d="m427.81,204.37c-26.88,0 -48.53,21.8 -48.53,48.52c0,26.87 21.8,48.52 48.53,48.52c26.86,0 48.51,-21.8 48.51,-48.52c0,-26.87 -21.8,-48.52 -48.51,-48.52zm-319.45,-204.37l76.19,0c4,0 7.28,3.27 7.28,7.28l0,60.95c0,4 -3.28,7.27 -7.28,7.27l-76.19,0c-4,0 -7.27,-3.27 -7.27,-7.27l0,-60.95c0,-4.01 3.27,-7.28 7.27,-7.28zm108.42,86.68l76.19,0c4,0 7.28,3.27 7.28,7.28l0,60.95c0,4 -3.28,7.27 -7.28,7.27l-76.19,0c-4,0 -7.27,-3.27 -7.27,-7.27l0,-60.95c0,-4.01 3.27,-7.28 7.27,-7.28zm26.15,8.27l23.89,0l0,25.25l-11.83,-9.99l-12.06,9.99l0,-25.25zm-26.15,-94.95l76.19,0c4,0 7.28,3.27 7.28,7.28l0,60.95c0,4 -3.28,7.27 -7.28,7.27l-76.19,0c-4,0 -7.27,-3.27 -7.27,-7.27l0,-60.95c0,-4.01 3.27,-7.28 7.27,-7.28zm26.15,8.26l23.89,0l0,25.25l-11.83,-9.99l-12.06,9.99l0,-25.25zm-134.57,78.42l76.19,0c4,0 7.28,3.27 7.28,7.28l0,60.95c0,4 -3.28,7.27 -7.28,7.27l-76.19,0c-4,0 -7.27,-3.27 -7.27,-7.27l0,-60.95c0,-4.01 3.27,-7.28 7.27,-7.28zm26.14,8.27l23.9,0l0,25.25l-11.83,-9.99l-12.07,9.99l0,-25.25zm0,-86.69l23.9,0l0,25.25l-11.83,-9.99l-12.07,9.99l0,-25.25zm15.28,200.42c-26.88,0 -48.52,21.8 -48.52,48.51c0,26.88 21.8,48.52 48.52,48.52c26.87,0 48.52,-21.79 48.52,-48.52c0,-26.86 -21.8,-48.51 -48.52,-48.51zm0,29.85c-10.3,0 -18.66,8.36 -18.66,18.66c0,10.31 8.36,18.66 18.66,18.66s18.66,-8.35 18.66,-18.66c0,-10.3 -8.36,-18.66 -18.66,-18.66zm166.81,-60.29l-316.59,0l0,49.98c0,12.08 9.89,21.98 21.99,21.98l63.7,0c1.62,-14.91 8.38,-28.35 18.48,-38.49l0.03,-0.04l0.07,-0.06c11.67,-11.65 27.76,-18.88 45.51,-18.88c17.77,0 33.91,7.22 45.59,18.89c10.1,10.11 16.87,23.56 18.49,38.58l153.34,0c3.28,-74.64 110.31,-84.94 121.21,0l23.59,0c-13.59,-94.56 0.02,-73.64 -85.63,-107.33c-0.73,-10.9 -3.65,-21.85 -7.56,-32.62c-16.94,-46.7 -45.03,-42.64 -102.22,-43.04l0,111.03zm55.84,-85.52l-27.44,-0.44l0,50.59l50.8,0c-2.53,-16.5 -9.09,-35.99 -23.36,-50.15zm55.38,141.51c-10.31,0 -18.66,8.36 -18.66,18.66s8.35,18.66 18.66,18.66c10.29,0 18.65,-8.36 18.65,-18.66s-8.36,-18.66 -18.65,-18.66z"/>
  <rect stroke-opacity="0" stroke="#585858" rx="8" id="svg_6" height="75.11111" width="84.88889" y="-0.85502" x="0"/>
  <rect stroke="null" rx="8" id="svg_7" height="75.11111" width="84.88889" y="86.70053" x="-0.44444"/>
  <rect id="svg_13" height="25.77778" width="24" y="7.58942" x="28.00001" stroke="null" fill="white"/>
  <path id="svg_47" d="m26.98055,33.35135l10.88888,-1.55556l10.8889,1.55556l-10.8889,1.55556l-10.88888,-1.55556z" fill="none"/>
  <path id="svg_57" d="m27.42277,33.34914l11.99999,-9.11111l12.00002,9.11111l-12.00002,9.11111l-11.99999,-9.11111z" stroke="#585858"/>
  <rect id="svg_89" height="24" width="24" y="95.58942" x="28.44444" fill="#ffffff"/>
  <path id="svg_91" d="m28.30721,120.00914l11.99998,-7.77778l12.00001,7.77778l-12.00001,7.77778l-11.99998,-7.77778z" fill="#585858"/>
 </g>
</svg>