<!-- <svg xmlns="http://www.w3.org/2000/svg" width="18px" height="18px" fill="#4e4e4e" viewBox="0 0 110.94 122.88">
    <path d="M19.26,40.53a2.74,2.74,0,0,1-2.59-2.82,2.69,2.69,0,0,1,2.59-2.82H63.41A2.72,2.72,0,0,1,66,37.71a2.68,2.68,0,0,1-2.58,2.82ZM79.41,66a24.82,24.82,0,0,1,20.78,38.41l10.75,11.71-7.42,6.77-10.36-11.4A24.82,24.82,0,1,1,79.41,66Zm13.2,11.62a18.66,18.66,0,1,0,5.47,13.2,18.66,18.66,0,0,0-5.47-13.2Zm-73.32-22a2.73,2.73,0,0,1-2.58-2.82A2.68,2.68,0,0,1,19.29,50H41.37A2.74,2.74,0,0,1,44,52.84a2.68,2.68,0,0,1-2.58,2.82ZM82.76,17.14H92a6.64,6.64,0,0,1,6.61,6.61V55.18c-.2,2.07-5.27,2.1-5.7,0V23.75a.92.92,0,0,0-.94-.94H82.73V55.18c-.49,1.88-4.72,2.16-5.67,0V6.61a.92.92,0,0,0-.94-.94H6.58a1,1,0,0,0-.68.27,1,1,0,0,0-.26.67V85.18a1,1,0,0,0,.26.67,1,1,0,0,0,.68.27H43.36c2.86.29,3,5.23,0,5.67H21.5v10.53a.92.92,0,0,0,.94.94H43.36c2.07.23,2.74,4.94,0,5.67H22.48a6.62,6.62,0,0,1-6.61-6.61V91.79H6.61a6.49,6.49,0,0,1-4.66-2A6.56,6.56,0,0,1,0,85.18V6.61A6.49,6.49,0,0,1,2,2,6.55,6.55,0,0,1,6.61,0H76.16a6.51,6.51,0,0,1,4.66,2,6.54,6.54,0,0,1,1.94,4.66V17.14ZM19.26,25.4a2.74,2.74,0,0,1-2.59-2.82,2.69,2.69,0,0,1,2.59-2.82H63.41A2.73,2.73,0,0,1,66,22.58a2.69,2.69,0,0,1-2.58,2.82Z"/>
</svg> -->

<svg xmlns="http://www.w3.org/2000/svg" xmlns:xlink="http://www.w3.org/1999/xlink" width="18px" height="18px" fill="#4e4e4e" viewBox="0 0 109.773 122.879" >
    <g><path d="M82.42,73.514c5.941,0,11.33,2.418,15.232,6.305c3.903,3.904,6.306,9.277,6.306,15.234c0,4.346-1.296,8.406-3.509,11.787 l9.324,10.162l-6.432,5.877l-8.992-9.891c-3.413,2.275-7.521,3.602-11.93,3.602c-5.941,0-11.33-2.416-15.233-6.305 c-3.903-3.902-6.306-9.275-6.306-15.232c0-5.941,2.418-11.33,6.306-15.234C71.09,75.916,76.462,73.514,82.42,73.514L82.42,73.514z M28.849,79.506c-1.588,0-2.876-1.318-2.876-2.906c0-1.617,1.289-2.904,2.876-2.904h18.753c1.588,0,2.876,1.316,2.876,2.904 c0,1.619-1.288,2.906-2.876,2.906H28.849L28.849,79.506z M28.849,38.645c-1.588,0-2.876-1.288-2.876-2.876 c0-1.587,1.289-2.875,2.876-2.875h38.045c1.588,0,2.876,1.288,2.876,2.875c0,1.588-1.288,2.876-2.876,2.876H28.849L28.849,38.645z M51.455,106.588c1.588,0,2.876,1.287,2.876,2.875s-1.288,2.877-2.876,2.877H6.711c-1.857,0-3.535-0.75-4.733-1.979 C0.749,109.164,0,107.486,0,105.629V6.71c0-1.857,0.749-3.535,1.978-4.733C3.206,0.749,4.854,0,6.711,0h82.292 c1.857,0,3.535,0.749,4.733,1.978c1.228,1.228,1.977,2.875,1.977,4.733v58.372c0,1.588-1.288,2.877-2.876,2.877 c-1.587,0-2.876-1.289-2.876-2.877V6.71c0-0.27-0.119-0.479-0.27-0.659c-0.18-0.18-0.419-0.27-0.658-0.27H6.741 c-0.27,0-0.479,0.12-0.659,0.27c-0.18,0.18-0.27,0.419-0.27,0.659v98.918c0,0.27,0.12,0.479,0.27,0.658 c0.18,0.18,0.419,0.27,0.659,0.27h44.744L51.455,106.588L51.455,106.588z M28.849,59.075c-1.588,0-2.876-1.288-2.876-2.875 c0-1.588,1.289-2.876,2.876-2.876h38.045c1.588,0,2.876,1.288,2.876,2.876c0,1.587-1.288,2.875-2.876,2.875H28.849L28.849,59.075z M94.811,82.66c-3.17-3.17-7.556-5.139-12.391-5.139c-4.836,0-9.222,1.969-12.392,5.139c-3.171,3.172-5.14,7.557-5.14,12.393 c0,4.834,1.969,9.221,5.14,12.391c3.17,3.17,7.556,5.139,12.392,5.139c4.835,0,9.221-1.969,12.391-5.139 c3.171-3.17,5.14-7.557,5.14-12.391C99.95,90.217,97.981,85.832,94.811,82.66L94.811,82.66L94.811,82.66z"/></g>
</svg>