<svg width="38" height="38" fill="#585858" viewBox="0 0 512 160" xmlns="http://www.w3.org/2000/svg" clip-rule="evenodd" fill-rule="evenodd" image-rendering="optimizeQuality" text-rendering="geometricPrecision" shape-rendering="geometricPrecision">

 <g>
  <title>Layer 1</title>
  <path id="svg_1" d="m426.81,158.37c-26.88,0 -48.53,21.8 -48.53,48.52c0,26.87 21.8,48.52 48.53,48.52c26.86,0 48.51,-21.8 48.51,-48.52c0,-26.87 -21.8,-48.52 -48.51,-48.52zm-278.03,4.31c-26.88,0 -48.52,21.8 -48.52,48.51c0,26.88 21.8,48.52 48.52,48.52c26.87,0 48.52,-21.79 48.52,-48.52c0,-26.86 -21.8,-48.51 -48.52,-48.51zm0,29.85c-10.3,0 -18.66,8.36 -18.66,18.66c0,10.31 8.36,18.66 18.66,18.66s18.66,-8.35 18.66,-18.66c0,-10.3 -8.36,-18.66 -18.66,-18.66zm166.81,-60.29l-316.59,0l0,49.98c0,12.08 9.89,21.98 21.99,21.98l63.7,0c1.62,-14.91 8.38,-28.35 18.48,-38.49l0.03,-0.04l0.07,-0.06c11.67,-11.65 27.76,-18.88 45.51,-18.88c17.77,0 33.91,7.22 45.59,18.89c10.1,10.11 16.87,23.56 18.49,38.58l153.34,0c3.28,-74.64 110.31,-84.94 121.21,0l23.59,0c-13.59,-94.56 0.02,-73.64 -85.63,-107.33c-0.73,-10.9 -3.65,-21.85 -7.56,-32.62c-16.94,-46.7 -45.03,-42.64 -102.22,-43.04l0,111.03zm55.84,-85.52l-27.44,-0.44l0,50.59l50.8,0c-2.53,-16.5 -9.09,-35.99 -23.36,-50.15zm55.38,141.51c-10.31,0 -18.66,8.36 -18.66,18.66s8.35,18.66 18.66,18.66c10.29,0 18.65,-8.36 18.65,-18.66s-8.36,-18.66 -18.65,-18.66z"/>
 </g>
</svg>