<?xml version="1.0" encoding="UTF-8" standalone="no"?>
<svg
   version="1.1"
   id="Layer_1"
   x="0px"
   y="0px"
   viewBox="0 0 15099.494 14742.816"
   xml:space="preserve"
   sodipodi:docname="male-icon.svg"
   inkscape:export-filename="..\Desktop\privat\webseiten\aba_neu\warenwirtschaft\static\Desktop\privat\webseiten\aba_neu\warenwirtschaft\static\icons\supplier-icon.svg"
   inkscape:export-xdpi="96"
   inkscape:export-ydpi="96"
   width="15099.494"
   height="14742.815"
   xmlns:inkscape="http://www.inkscape.org/namespaces/inkscape"
   xmlns:sodipodi="http://sodipodi.sourceforge.net/DTD/sodipodi-0.dtd"
   xmlns="http://www.w3.org/2000/svg"
   xmlns:svg="http://www.w3.org/2000/svg"><defs
     id="defs1" /><sodipodi:namedview
     id="namedview1"
     pagecolor="#ffffff"
     bordercolor="#000000"
     borderopacity="0.25"
     inkscape:showpageshadow="2"
     inkscape:pageopacity="0.0"
     inkscape:pagecheckerboard="0"
     inkscape:deskcolor="#d1d1d1"><inkscape:page
       x="0"
       y="0"
       width="15099.494"
       height="14742.816"
       id="page2"
       margin="0"
       bleed="0" /></sodipodi:namedview><style
     type="text/css"
     id="style1">.st0{fill-rule:evenodd;clip-rule:evenodd;}</style><g
     id="g1"
     transform="matrix(0.93331173,0,0,0.99877292,8.1939873,0.14899215)"><path
       class="st0"
       d="M 0,121.42 V 101.79 C 10.5,97.12 42.65,88.23 44.16,75.38 44.5,72.48 37.66,61.42 36.09,56.12 32.73,50.77 31.53,42.27 35.2,36.62 c 1.46,-2.25 0.84,-10.44 0.84,-13.53 0,-30.77 53.92,-30.78 53.92,0 0,3.89 -0.9,11.04 1.22,14.1 3.54,5.12 1.71,14.19 -1.27,18.93 -1.91,5.57 -9.18,16.11 -8.56,19.26 2.31,11.74 32.13,19.63 41.52,23.8 v 22.23 z"
       id="path1"
       style="fill:#585858;fill-opacity:1;stroke:none;stroke-opacity:1" /></g><path
     fill-rule="nonzero"
     d="m 27.534154,54.127492 c 0.911614,0.06432 1.560436,0.501748 1.936499,1.312247 0.953298,2.02756 -0.17761,4.024235 -1.092848,5.487004 l -11.583652,18.29173 c -1.038479,1.628734 -2.517359,1.628734 -3.55493,0 L 1.919269,61.342287 C 0.94965997,59.811336 -0.47303403,57.638402 0.56000397,55.439739 0.93878597,54.62924 1.587608,54.191822 2.498316,54.127492 h 6.91775 v -38.77054 c 0,-0.448989 0.259166,-0.815647 0.574516,-0.815647 h 10.052212 c 0.314443,0 0.57361,0.367943 0.57361,0.815647 v 38.77054 z"
     id="path1-8"
     sodipodi:nodetypes="cccccccccsssscc"
     style="fill:#585858;fill-opacity:1;stroke:#585858;stroke-width:0.107973;stroke-opacity:1" /></svg>
