<svg id="Layer_1" data-name="Layer 1" xmlns="http://www.w3.org/2000/svg" width="42" height="42" fill="#585858" viewBox="0 0 122.88 70.32"><defs><style>.cls-1{fill-rule:evenodd;}</style></defs><path class="cls-1" d="M13.59,43.14h95.7a13.64,13.64,0,0,1,13.59,13.59h0a13.64,13.64,0,0,1-13.59,13.59H13.59A13.64,13.64,0,0,1,0,56.73H0A13.63,13.63,0,0,1,13.59,43.14Zm66.08-35h17.7A1.67,1.67,0,0,1,99,9.78V22.14a1.67,1.67,0,0,1-1.66,1.66H79.67A1.67,1.67,0,0,1,78,22.14V9.78a1.67,1.67,0,0,1,1.67-1.66ZM68.21,25.36H85.92A1.66,1.66,0,0,1,87.58,27V39.37A1.68,1.68,0,0,1,85.92,41H68.21a1.67,1.67,0,0,1-1.66-1.67V27a1.66,1.66,0,0,1,1.66-1.66Zm6.14,1.81h5.47l.1,6.07L77,31.44l-2.76,1.75.13-6Zm16.72-1.84h17.7A1.66,1.66,0,0,1,110.43,27V39.35A1.67,1.67,0,0,1,108.77,41H91.07a1.67,1.67,0,0,1-1.66-1.66V27a1.67,1.67,0,0,1,1.66-1.66Zm6.14,1.81h5.47l.09,6.07-2.94-1.8-2.76,1.75.14-6ZM85.8,9.94h5.47l.1,6.06-2.94-1.79L85.67,16l.13-6Zm-56-7.71a1.09,1.09,0,0,1-.26,0c-2.31,1-4.17,3.29-4.68,7.06a.78.78,0,0,1-.88.66.77.77,0,0,1-.69-.84C23.83,4.67,26.09,2,28.88.79A9.6,9.6,0,0,1,33.33,0,10.76,10.76,0,0,1,37.7,1.21a9.28,9.28,0,0,1,5.18,7.93.79.79,0,0,1-1.57.06A7.78,7.78,0,0,0,37,2.55l-.31-.15a.92.92,0,0,1-.29,0c-.72,0-.9,1.26-1,3,0,.77,0,1.62,0,2.49,0,.69,0,1.39,0,1.86a.78.78,0,0,1-.78.78.79.79,0,0,1-.79-.78c0-.76,0-1.3,0-1.84,0-.89,0-1.75,0-2.55a6.85,6.85,0,0,1,.8-3.67,8.78,8.78,0,0,0-3.15-.11,7.38,7.38,0,0,1,.74,3.64c0,.82,0,1.72,0,2.64,0,.56,0,1.12,0,1.89a.77.77,0,1,1-1.53,0c0-.48,0-1.2,0-1.91,0-.9,0-1.79,0-2.59,0-1.76-.23-3.07-1-3.05ZM27.91,24.12C24.66,35.18,11.28,26,11.28,41H54.39c0-15-12.55-6.1-15.93-16.91a9.56,9.56,0,0,0,2.17-4c.07-.19.12-.44.18-.65a1.62,1.62,0,0,0,.83-.56,4.2,4.2,0,0,0,.72-1.33h0a8.11,8.11,0,0,0,.24-.88,5.09,5.09,0,0,0,.13-.83,6.9,6.9,0,0,0-.62-3.31,5.29,5.29,0,0,0,2.09-1.76L42.85,10a4.2,4.2,0,0,1-1.77,1.36,21.6,21.6,0,0,1-8.59,1.51c-3.19,0-6.27-.54-8-1.64a3,3,0,0,1-1.15-1.16h0l-1.43.63a4.35,4.35,0,0,0,1.72,1.8,4.83,4.83,0,0,0,.45.26,13,13,0,0,0-.51,1.49A4.85,4.85,0,0,0,23.35,16a6.22,6.22,0,0,0,.73,2.33v0a1.74,1.74,0,0,0,1.19.92l.12.4a11.31,11.31,0,0,0,2.51,4.45Zm9.71.76a6.81,6.81,0,0,1-4.51,1.54A7,7,0,0,1,28.93,25l-.28-.15c-.55,1.82-1.41,3.76-3.32,4.68,4.78,2.4,12.07,1.93,15-.62-1.45-.82-2.07-2.31-2.72-4.05ZM25.46,13.37a3.08,3.08,0,0,0-.61,2.34,5.77,5.77,0,0,0,.3,1.52,2,2,0,0,0,.52.86c.07.05.12.07.17.05h0a.42.42,0,0,1,.33.05.51.51,0,0,1,.24.28l.24.79a8.28,8.28,0,0,0,3.21,4.49,6.27,6.27,0,0,0,3.33,1.06,5.63,5.63,0,0,0,3.26-1,7.37,7.37,0,0,0,2.81-4.07c.08-.31.17-.7.28-1a.56.56,0,0,1,.19-.28.48.48,0,0,1,.35-.08c.14,0,.3-.08.46-.26a3,3,0,0,0,.55-1,5.74,5.74,0,0,0,.15-2,9.93,9.93,0,0,0-.52-1.89v-.09h0c-4.07,1.46-11,1.73-15.27.22Zm-7.59,37.4a5.82,5.82,0,1,1-5.82,5.82,5.81,5.81,0,0,1,5.82-5.82Zm87.15,0a5.82,5.82,0,1,1-5.82,5.82A5.81,5.81,0,0,1,105,50.77Zm-21.79,0a5.82,5.82,0,1,1-5.82,5.82,5.82,5.82,0,0,1,5.82-5.82Zm-21.79,0a5.82,5.82,0,1,1-5.82,5.82,5.82,5.82,0,0,1,5.82-5.82Zm-21.79,0a5.82,5.82,0,1,1-5.81,5.82,5.81,5.81,0,0,1,5.81-5.82Z"/></svg>