<?xml version="1.0" encoding="UTF-8" standalone="no"?>
<svg
   version="1.1"
   id="Layer_1"
   x="0px"
   y="0px"
   viewBox="0 0 25.407 21.062"
   xml:space="preserve"
   sodipodi:docname="customer-icon.svg"
   height="24"
   inkscape:version="1.4.2 (ebf0e94, 2025-05-08)"
   xmlns:inkscape="http://www.inkscape.org/namespaces/inkscape"
   xmlns:sodipodi="http://sodipodi.sourceforge.net/DTD/sodipodi-0.dtd"
   xmlns="http://www.w3.org/2000/svg"
   xmlns:svg="http://www.w3.org/2000/svg"><defs
     id="defs1" /><sodipodi:namedview
     id="namedview1"
     pagecolor="#ffffff"
     bordercolor="#000000"
     borderopacity="0.25"
     inkscape:showpageshadow="2"
     inkscape:pageopacity="0.0"
     inkscape:pagecheckerboard="0"
     inkscape:deskcolor="#d1d1d1"
     inkscape:zoom="26.578445"
     inkscape:cx="13.563623"
     inkscape:cy="9.8011754"
     inkscape:window-width="1920"
     inkscape:window-height="1129"
     inkscape:window-x="1912"
     inkscape:window-y="-8"
     inkscape:window-maximized="1"
     inkscape:current-layer="Layer_1" /><style
     type="text/css"
     id="style1"><![CDATA[
	.st0{fill-rule:evenodd;clip-rule:evenodd;}
]]></style><g
     id="g1"
     transform="matrix(0.20673989,0,0,0.22367375,7.3436865e-4,-0.00135714)"
     style="fill:#666666;fill-opacity:1;fill-rule:nonzero"><path
       class="st0"
       d="M 34.02,65.66 C 39.83,77.78 57.45,78.2 63.01,65.73 61.5,64.19 60.37,62.54 59.25,60.91 59.07,60.65 58.88,60.37 58.69,60.11 56,62.24 52.75,63.6 48.5,63.59 43.92,63.58 40.47,61.82 37.64,59.24 c -0.17,-0.15 -0.34,-0.31 -0.5,-0.47 -0.4,1.13 -0.92,2.47 -1.47,3.73 -0.54,1.19 -1.11,2.34 -1.65,3.16 z m 70.86,-8.77 H 87.62 75.39 c -1.16,0 -2.12,0.95 -2.12,2.12 v 29.34 c 0,1.16 0.96,2.11 2.12,2.11 h 41.73 c 1.16,0 2.11,-0.96 2.11,-2.11 V 59 c 0,-1.16 -0.95,-2.12 -2.11,-2.12 h -12.24 z m -13.61,0 h 9.97 z M 75.39,53.24 h 12.24 17.26 12.24 c 1.58,0 3.01,0.65 4.06,1.69 l 0.01,0.01 c 1.04,1.04 1.69,2.48 1.69,4.06 v 29.34 c 0,1.57 -0.65,3.01 -1.69,4.05 l -0.01,0.01 c -1.05,1.04 -2.49,1.69 -4.05,1.69 H 93.79 c -0.06,0.03 -0.13,0.06 -0.19,0.08 H 2.51 C -1.03,93.47 -2.88,81 11.41,73.03 17.18,69.81 26.04,68.75 32.27,64.4 32.73,63.71 33.22,62.71 33.7,61.63 34.41,59.99 35.07,58.21 35.49,57 33.74,54.95 32.26,52.63 30.82,50.34 L 26.09,44.2 c -1.73,-2.58 -2.62,-4.94 -2.68,-6.86 -0.03,-0.91 0.13,-1.74 0.46,-2.46 0.36,-0.76 0.89,-1.39 1.63,-1.89 0.34,-0.23 0.72,-0.42 1.15,-0.58 -0.31,-4.07 -0.42,-7.83 -0.23,-12.14 0.1,-1.02 0.3,-2.04 0.58,-3.06 5.72,-20.36 35.63,-22.69 39.84,-6.77 2.62,2.84 4.27,6.6 4.63,11.58 l -0.3,10.88 v 0 c 1.31,0.4 2.15,1.23 2.49,2.58 0.38,1.49 -0.03,3.59 -1.3,6.46 v 0 c -0.02,0.05 -0.05,0.1 -0.08,0.15 l -5.39,7.49 c -1.97,3.26 -3.99,6.53 -6.61,9.1 0.23,0.34 0.47,0.69 0.71,1.02 1.07,1.56 2.14,3.13 3.53,4.53 0.05,0.04 0.08,0.08 0.11,0.13 v 0 c 1.57,1.11 3.25,2 4.99,2.77 V 59 c 0,-1.59 0.65,-3.03 1.69,-4.07 1.05,-1.04 2.49,-1.69 4.08,-1.69 z M 29.38,34.6 c -1.04,0.04 -1.84,0.25 -2.38,0.62 -0.31,0.21 -0.54,0.47 -0.69,0.79 -0.16,0.35 -0.24,0.78 -0.23,1.27 0.04,1.44 0.8,3.32 2.25,5.48 l 0.02,0.03 v 0 l 4.73,6.14 c 1.89,3.02 3.88,6.08 6.35,8.34 2.38,2.17 5.26,3.64 9.06,3.65 4.13,0.01 7.15,-1.51 9.59,-3.81 2.55,-2.39 4.56,-5.65 6.54,-8.91 l 5.32,-7.39 c 1,-2.27 1.35,-3.78 1.13,-4.66 -0.13,-0.53 -0.71,-0.79 -1.71,-0.84 -0.21,-0.01 -0.43,-0.01 -0.65,-0.01 -0.24,0.01 -0.49,0.02 -0.74,0.05 -0.14,0.01 -0.28,0 -0.41,-0.03 -0.47,0.03 -0.96,-0.01 -1.46,-0.08 l 1.82,-6.69 C 54.39,30.68 44.27,20.63 29.97,26.54 L 31,34.67 c -0.58,0.02 -1.11,0 -1.62,-0.07 z"
       id="path1"
       style="fill:#666666;fill-opacity:1;fill-rule:nonzero"
       sodipodi:nodetypes="cccccccccccsssssssscccccsccscsssscsccccccccccccccccccscsscccccsscscsccccccccccccccccccccccc" /></g><style
     type="text/css"
     id="style1-8">.st0{fill-rule:evenodd;clip-rule:evenodd;}</style><polygon
     class="st0"
     points="24.24,84.89 24.24,0 51.09,0 51.09,84.89 75.33,84.89 37.66,122.88 0,84.89 "
     id="polygon1"
     transform="matrix(0.11706964,0,0,0.08160785,16.537286,-0.00600059)"
     style="fill:#666666;fill-opacity:1" /><rect
     style="fill:#666666;fill-opacity:1;fill-rule:nonzero;stroke:#282626;stroke-width:0;stroke-linejoin:round;stroke-dasharray:none;stroke-opacity:1"
     id="rect1"
     width="7.6377673"
     height="5.7941685"
     x="16.103273"
     y="13.582434" /></svg>
