<?xml version="1.0" encoding="UTF-8" standalone="no"?>
<!-- Created with Inkscape (http://www.inkscape.org/) -->

<svg
   width="22"
   height="22"
   viewBox="0 0 5.8208333 5.8208333"
   version="1.1"
   id="svg1"
   xml:space="preserve"
   inkscape:version="1.4.2 (ebf0e94, 2025-05-08)"
   sodipodi:docname="customer-icon.svg"
   xmlns:inkscape="http://www.inkscape.org/namespaces/inkscape"
   xmlns:sodipodi="http://sodipodi.sourceforge.net/DTD/sodipodi-0.dtd"
   xmlns="http://www.w3.org/2000/svg"
   xmlns:svg="http://www.w3.org/2000/svg"><sodipodi:namedview
     id="namedview1"
     pagecolor="#ffffff"
     bordercolor="#000000"
     borderopacity="0.25"
     inkscape:showpageshadow="2"
     inkscape:pageopacity="0.0"
     inkscape:pagecheckerboard="0"
     inkscape:deskcolor="#d1d1d1"
     inkscape:document-units="mm"
     inkscape:zoom="35.679132"
     inkscape:cx="9.0949522"
     inkscape:cy="11.925739"
     inkscape:window-width="1920"
     inkscape:window-height="1129"
     inkscape:window-x="1912"
     inkscape:window-y="-8"
     inkscape:window-maximized="1"
     inkscape:current-layer="layer1" /><defs
     id="defs1"><linearGradient
       id="swatch6"
       inkscape:swatch="solid"><stop
         style="stop-color:#000000;stop-opacity:1;"
         offset="0"
         id="stop6" /></linearGradient></defs><g
     inkscape:label="Ebene 1"
     inkscape:groupmode="layer"
     id="layer1"><path
       class="st0"
       d="m 0.11938987,5.7024524 7.9e-7,-0.9010675 C 0.59624847,4.5870203 2.0563415,4.1789474 2.1249189,3.5890997 2.1403604,3.4559827 1.8297218,2.9482997 1.7584207,2.7050156 1.6058264,2.4594366 1.5513285,2.0692647 1.7180018,1.8099153 c 0.066305,-0.1032807 0.03815,-0.4792229 0.03815,-0.621062 1.1e-6,-1.41242225 2.4487791,-1.41287915 2.4487779,2.1e-6 -3e-7,0.1785608 -0.040874,0.5067647 0.055405,0.6472265 0.160769,0.2350213 0.077659,0.6513577 -0.057676,0.8689358 -0.086743,0.2556771 -0.4169111,0.73949 -0.3887542,0.8840836 0.1049085,0.5388959 1.4591839,0.9010688 1.8856307,1.0924832 l -9e-7,1.0204134 z"
       id="path1"
       style="fill:#e6e6e6;fill-opacity:1;stroke:#000000;stroke-width:0.205131;stroke-dasharray:none;stroke-opacity:1"
       sodipodi:nodetypes="ccccccscccccc" /><polygon
       class="st0"
       points="24.24,84.89 24.24,0 51.09,0 51.09,84.89 75.33,84.89 37.66,122.88 0,84.89 "
       id="polygon1"
       transform="matrix(0.03562119,0,0,0.03950755,2.5490438,0.15269651)"
       style="fill:#808080;fill-opacity:1;fill-rule:nonzero;stroke:#000000;stroke-width:5.00031;stroke-dasharray:none;stroke-opacity:1"
       inkscape:label="polygon1" /></g><style
     type="text/css"
     id="style1">.st0{fill-rule:evenodd;clip-rule:evenodd;}</style><style
     type="text/css"
     id="style1-8">.st0{fill-rule:evenodd;clip-rule:evenodd;}</style></svg>
