<?xml version="1.0" encoding="UTF-8" standalone="no"?>
<svg
   width="24.200001"
   height="24.200001"
   clip-rule="evenodd"
   fill-rule="evenodd"
   image-rendering="optimizeQuality"
   text-rendering="geometricPrecision"
   shape-rendering="geometricPrecision"
   version="1.1"
   id="svg1"
   sodipodi:docname="material-icon.svg"
   inkscape:version="1.4.2 (ebf0e94, 2025-05-08)"
   xmlns:inkscape="http://www.inkscape.org/namespaces/inkscape"
   xmlns:sodipodi="http://sodipodi.sourceforge.net/DTD/sodipodi-0.dtd"
   xmlns="http://www.w3.org/2000/svg"
   xmlns:svg="http://www.w3.org/2000/svg"
   fill="#282828">
  <defs
     id="defs1" />
  <sodipodi:namedview
     id="namedview1"
     pagecolor="#ffffff"
     bordercolor="#000000"
     borderopacity="0.25"
     inkscape:showpageshadow="2"
     inkscape:pageopacity="0.0"
     inkscape:pagecheckerboard="0"
     inkscape:deskcolor="#484848"
     inkscape:zoom="26.885841"
     inkscape:cx="13.222573"
     inkscape:cy="8.6104801"
     inkscape:window-width="1920"
     inkscape:window-height="1009"
     inkscape:window-x="1912"
     inkscape:window-y="-8"
     inkscape:window-maximized="1"
     inkscape:current-layer="svg1" />
  <g
     id="g1"
     transform="translate(1.0954016,-1.5038197)">
    <title
       id="title1">Layer 1</title>
    <path
       id="svg_1"
       d="M 8.5045263,3.8184179 7.4708035,4.4757798 C 7.2323043,4.626115 7.1006475,4.7544672 7.0765721,4.8558725 7.0524961,4.957987 7.1141891,5.1139952 7.2654071,5.3253154 L 7.6190181,5.8195778 9.2132409,4.8062336 Z M 16.33798,12.323701 h -1.19323 l -0.723004,9.929214 h 1.193225 z m -4.602121,0 h -1.193218 v 9.929214 h 1.193218 z m -4.6013584,0 H 5.9405241 l 0.723007,9.929214 h 1.193975 z M 1.5784088,9.008527 h 0.075235 L -0.96076634,6.2982393 c -0.0910342,-0.095023 -7.5258e-4,-0.2063563 0.0451409,-0.3269081 0.0338557,-0.086514 0.069216,-0.1701908 0.10457639,-0.254577 C -0.46948294,4.9296219 -0.00979801,4.2687144 0.58530944,3.752469 0.55295844,3.5957517 0.61389834,3.4269792 0.75834955,3.3227373 0.89979121,3.2192046 1.0871257,3.2078585 1.2398523,3.2752257 1.9643639,2.8355662 2.8468683,2.5625519 3.9024126,2.4774565 4.0385872,2.4682378 4.1747628,2.4150532 4.2492453,2.5200042 L 8.7964339,9.008527 H 9.353177 L 6.8094849,5.4543767 C 6.5913049,5.1501607 6.5002708,4.9161484 6.5356313,4.7537581 6.5740003,4.5920768 6.7575764,4.404867 7.0938802,4.1907103 L 8.2585071,3.4503804 C 7.9530611,3.0227761 7.6498594,2.7717447 7.3444051,2.6972862 7.042713,2.6199912 6.6921198,2.7079231 6.3008988,2.9568272 6.0112449,3.1412005 5.7276097,3.4525078 5.5936917,3.7475051 L 5.2588963,3.1525465 C 5.4191466,2.9298803 5.73739,2.6370103 5.9849129,2.4795839 7.0336857,1.8130033 7.9553136,2.032124 8.747535,3.1390731 L 9.2583805,2.8150015 c 0.3475866,-0.221248 0.6056367,-0.3191077 0.7673975,-0.2935791 0.161752,0.027656 0.357364,0.1992651 0.584569,0.5169545 l 2.562508,3.5803884 c 0.20614,0.2900334 0.332531,0.5935403 0.37767,0.9140663 l 3.271211,-5.3404447 c 0.173041,-0.2836513 0.452917,-0.4751159 0.762878,-0.5509926 0.312226,-0.080132 0.653041,-0.045384 0.951724,0.1170062 l 3.835476,2.0862552 c 0.300183,0.1638086 0.504068,0.4283134 0.585323,0.719056 0.08351,0.2949973 0.0474,0.6176507 -0.126396,0.8984655 l -2.185569,3.5697511 c 0.486769,0.095732 0.886264,0.4084578 0.976544,0.8651364 0.02859,0.1517533 0.01505,0.2481953 0.0015,0.3914383 l -1.461069,14.096051 c -0.02332,0.226921 -0.04588,0.404203 -0.164758,0.611978 C 19.794257,25.351805 19.419589,25.6 18.953128,25.6 L 3.0123747,25.599291 c -0.340814,0 -0.6169254,-0.06949 -0.8652005,-0.277978 C 1.9094322,25.122048 1.755953,24.831305 1.725107,24.514325 L 0.27984618,10.37289 C 0.25953228,10.16086 0.23169538,10.024708 0.29790228,9.8105511 0.35207158,9.6311416 0.45815256,9.4708786 0.59733704,9.3425264 0.8960189,9.0673847 1.2135097,9.008527 1.578399,9.008527 Z m 3.186195,0 H 5.8622797 C 5.9194577,8.96527 5.9284867,8.8872661 5.8856017,8.8319541 L 5.4582689,8.3107452 C 5.4138799,8.2547241 5.328865,8.2447963 5.2701819,8.287344 L 4.6893692,8.7071475 c -0.057931,0.043257 -0.069969,0.1226792 -0.024076,0.1787004 z m 2.1705262,0 H 7.8386951 L 7.5844042,8.6979289 C 7.5400202,8.6426169 7.455754,8.6319799 7.3963158,8.6745276 Z m 2.9732781,0 h 2.6745939 c 0.06546,-0.060985 0.126403,-0.1255157 0.182079,-0.1928828 L 13.003571,8.425624 C 13.058491,8.3043631 13.098361,8.1753017 13.126199,8.03844 13.23153,7.5285768 13.105139,7.291728 12.795169,6.8591598 L 10.918058,4.238931 7.8740609,6.174851 9.7511601,8.7964977 Z m 3.3336559,0 h 6.89452 L 22.182964,5.67137 17.007569,2.8589675 Z m 7.158589,1.009799 H 1.4565286 v -0.0021 c -0.06395,0.0028 -0.136928,0.03262 -0.1324133,0.09928 l 1.4550413,14.23504 c 0.00602,0.06382 0.00602,0.151754 0.053416,0.198556 0.030095,0.02907 0.072978,0.04113 0.1294044,0.04113 h 15.991915 c 0.04063,0 0.07975,-0.02978 0.103073,-0.07162 0.03009,-0.06524 0.03084,-0.09715 0.03761,-0.163808 l 1.472346,-14.203838 c 0.0023,-0.03758 0.01354,-0.0624 -0.01731,-0.09006 -0.05116,-0.04751 -0.08953,-0.04255 -0.148967,-0.04255 z M 2.0869962,4.9516048 C 2.8258023,4.4140856 3.8866136,4.5445652 4.4561407,5.2423474 5.0256689,5.9401296 4.8864835,6.9400004 4.1461731,7.4753922 3.4073671,8.0129114 2.3458043,7.8824318 1.7770292,7.1860679 1.2075012,6.4868674 1.346686,5.4884149 2.0869962,4.9516048 Z m 0.3438232,0.3956936 c 0.1414418,-0.1021145 0.347585,-0.077295 0.4566759,0.05673 L 3.2140136,5.8053952 3.641348,5.4969244 a 0.32350972,0.30492513 0 0 1 0.4536658,0.054603 c 0.1090904,0.1340252 0.082006,0.3276173 -0.058683,0.4304408 L 3.6105015,6.2897298 3.9385251,6.6925146 C 4.0461109,6.8244125 4.0190271,7.0180045 3.8783371,7.1208281 3.7353914,7.2222334 3.5315048,7.198123 3.4239195,7.0648069 L 3.0958949,6.6634404 2.670066,6.9719111 C 2.5278721,7.0740256 2.3224808,7.0492061 2.2141428,6.91589 2.1042999,6.7825739 2.1321368,6.5889819 2.2728258,6.4868674 L 2.7009119,6.1783967 2.3728884,5.776321 C 2.2637974,5.6422957 2.2893774,5.4494128 2.4308184,5.3472984 Z M 5.8269192,7.88385 6.407732,7.4626279 c 0.058683,-0.042548 0.1429462,-0.031911 0.1873343,0.023401 L 7.021654,8.0079475 c 0.045139,0.055312 0.0346,0.1354435 -0.025589,0.177282 L 6.4160077,8.6064513 C 6.3573247,8.648999 6.2738139,8.6397804 6.227168,8.5830501 L 5.8020918,8.0611321 C 5.7561988,8.0065292 5.7682368,7.9256886 5.8269192,7.88385 Z M 8.8867185,3.5758961 9.5931761,4.5637117 10.664521,3.8822395 10.309416,3.3879771 C 10.152166,3.1674382 10.022013,3.0525595 9.9189331,3.0369586 9.818879,3.0220669 9.6420765,3.0936889 9.3968122,3.248988 Z M 19.779215,3.9063498 A 0.51580993,0.48617831 0 0 1 19.590378,3.2418967 0.51535853,0.48575283 0 0 1 20.296083,3.0624873 c 0.246015,0.1340252 0.334038,0.4304408 0.18959,0.6658714 -0.14144,0.2318849 -0.455922,0.3134346 -0.706458,0.1779911 z"
       style="stroke-width:0.0730422" />
  </g>
</svg>
