<?xml version="1.0" encoding="UTF-8" standalone="no"?>
<svg
   version="1.1"
   id="Layer_1"
   x="0px"
   y="0px"
   viewBox="0 0 122.72349 121.26226"
   xml:space="preserve"
   sodipodi:docname="supplier-icon.svg"
   inkscape:export-filename="supplier-icon.svg"
   inkscape:export-xdpi="16.40625"
   inkscape:export-ydpi="16.40625"
   width="12.272349"
   height="12.126226"
   inkscape:version="1.4 (86a8ad7, 2024-10-11)"
   xmlns:inkscape="http://www.inkscape.org/namespaces/inkscape"
   xmlns:sodipodi="http://sodipodi.sourceforge.net/DTD/sodipodi-0.dtd"
   xmlns="http://www.w3.org/2000/svg"
   xmlns:svg="http://www.w3.org/2000/svg"><defs
     id="defs1" /><sodipodi:namedview
     id="namedview1"
     pagecolor="#ffffff"
     bordercolor="#000000"
     borderopacity="0.25"
     inkscape:showpageshadow="2"
     inkscape:pageopacity="0.0"
     inkscape:pagecheckerboard="0"
     inkscape:deskcolor="#d1d1d1"
     inkscape:zoom="45.254834"
     inkscape:cx="3.4471456"
     inkscape:cy="9.0708542"
     inkscape:window-width="1920"
     inkscape:window-height="1017"
     inkscape:window-x="1912"
     inkscape:window-y="-8"
     inkscape:window-maximized="1"
     inkscape:current-layer="Layer_1" /><style
     type="text/css"
     id="style1">.st0{fill-rule:evenodd;clip-rule:evenodd;}</style><g
     id="g1"
     transform="matrix(0.93331173,0,0,0.99877292,8.0474848,-0.00873911)"><path
       class="st0"
       d="M 0,121.42 V 101.79 C 10.5,97.12 42.65,88.23 44.16,75.38 44.5,72.48 37.66,61.42 36.09,56.12 32.73,50.77 31.53,42.27 35.2,36.62 c 1.46,-2.25 0.84,-10.44 0.84,-13.53 0,-30.77 53.92,-30.78 53.92,0 0,3.89 -0.9,11.04 1.22,14.1 3.54,5.12 1.71,14.19 -1.27,18.93 -1.91,5.57 -9.18,16.11 -8.56,19.26 2.31,11.74 32.13,19.63 41.52,23.8 v 22.23 z"
       id="path1"
       style="fill:#383838;fill-opacity:1;stroke:none;stroke-opacity:1"
       sodipodi:nodetypes="cccccsscccccc" /></g><path
     fill-rule="nonzero"
     d="m 27.622026,54.165073 c 0.911614,0.06432 1.872936,0.111124 2.248999,0.921623 -0.570139,3.668184 -0.49011,4.414859 -1.405348,5.877628 l -11.583652,18.29173 c -1.038479,1.628734 -2.751734,1.433422 -3.789305,-0.195312 L 1.7727665,61.184556 C 0.80315745,59.653605 -0.61953655,57.480671 0.41350145,55.282008 0.79228345,54.471509 1.4411055,54.034091 2.3518135,53.969761 h 6.91775 v -38.77054 c 0,-0.448989 0.259166,-0.815647 0.574516,-0.815647 H 19.896291 c 0.314443,0 0.807985,0.563255 0.807985,1.010959 v 38.77054 z"
     id="path1-8"
     sodipodi:nodetypes="cccccccccsssscc"
     style="fill:#383838;fill-opacity:1;stroke:#585858;stroke-width:0.107973;stroke-opacity:1" /></svg>
