<?xml version="1.0" encoding="UTF-8" standalone="no"?>
<svg
   xmlns:dc="http://purl.org/dc/elements/1.1/"
   xmlns:cc="http://creativecommons.org/ns#"
   xmlns:rdf="http://www.w3.org/1999/02/22-rdf-syntax-ns#"
   xmlns:svg="http://www.w3.org/2000/svg"
   xmlns="http://www.w3.org/2000/svg"
   xmlns:sodipodi="http://sodipodi.sourceforge.net/DTD/sodipodi-0.dtd"
   xmlns:inkscape="http://www.inkscape.org/namespaces/inkscape"
   width="210mm"
   height="297mm"
   viewBox="0 0 210 297"
   version="1.1"
   id="svg8"
   inkscape:version="1.0.1 (1.0.1+r73)"
   sodipodi:docname="Anderwerk_logo_freecad_test.svg">
  <defs
     id="defs2" />
  <sodipodi:namedview
     id="base"
     pagecolor="none"
     bordercolor="#666666"
     borderopacity="1.0"
     inkscape:pageopacity="0.0"
     inkscape:pageshadow="2"
     inkscape:zoom="5.6"
     inkscape:cx="116.34838"
     inkscape:cy="50.826698"
     inkscape:document-units="mm"
     inkscape:current-layer="layer1"
     inkscape:document-rotation="0"
     showgrid="false"
     inkscape:window-width="1920"
     inkscape:window-height="1146"
     inkscape:window-x="1920"
     inkscape:window-y="0"
     inkscape:window-maximized="1" />
  <metadata
     id="metadata5">
    <rdf:RDF>
      <cc:Work
         rdf:about="">
        <dc:format>image/svg+xml</dc:format>
        <dc:type
           rdf:resource="http://purl.org/dc/dcmitype/StillImage" />
        <dc:title></dc:title>
      </cc:Work>
    </rdf:RDF>
  </metadata>
  <g
     inkscape:label="Layer 1"
     inkscape:groupmode="layer"
     id="layer1">
    <path
       style="fill:none;stroke-width:0.1;stroke-miterlimit:4;stroke-dasharray:none;stroke:#000000;stroke-opacity:1;width=42; height=42"
       d="m 60.121366,18.645066 c 1.401714,-1.423265 2.398436,-2.412066 3.961169,-3.97481 -1.33549,-1.345863 -2.68188,-2.681221 -4.011865,-4.03242 0.466339,-0.460324 0.799941,-0.7832759 1.232888,-1.2061501 1.729903,1.7503751 3.495159,3.4662671 5.217136,5.2243901 0,0.0104 -5.205436,5.21442 -5.215879,5.21442 -0.422062,-0.424627 -0.746868,-0.763824 -1.183449,-1.22543 z m -23.208452,1.09034 c -0.01923,-0.009 -0.02754,-0.0225 -0.0497,-0.0779 -0.01463,-0.0366 -0.165385,-0.41918 -0.335005,-0.85027 -0.16962,-0.43108 -0.30973,-0.78515 -0.311356,-0.78682 -0.0017,-0.002 -0.0042,-0.002 -0.0057,0 -0.0014,0.002 -0.06208,0.37174 -0.134595,0.8224 -0.07252,0.45065 -0.134853,0.82498 -0.138525,0.83184 -0.0037,0.007 -0.01843,0.018 -0.03278,0.0249 -0.02237,0.0106 -0.04558,0.0121 -0.161728,0.01 -0.105309,-0.002 -0.139304,-0.005 -0.15213,-0.0132 -0.03884,-0.0256 -0.04734,0.0301 0.200472,-1.31305 0.226427,-1.22726 0.231184,-1.25133 0.250622,-1.26805 0.01683,-0.0145 0.02766,-0.017 0.07203,-0.017 0.09124,7e-5 0.0444,-0.0946 0.47781,0.96519 0.211401,0.51691 0.386643,0.94203 0.389426,0.94472 0.0029,0.003 0.176503,-0.41697 0.386044,-0.93257 0.272032,-0.66937 0.386541,-0.94317 0.400413,-0.95742 0.0178,-0.0183 0.02397,-0.02 0.0743,-0.02 0.04965,0 0.05698,0.002 0.07705,0.02 l 0.02217,0.0199 0.228807,1.24827 c 0.179669,0.98019 0.227536,1.25372 0.222882,1.27367 -0.01023,0.0438 -0.03514,0.0508 -0.182152,0.0508 -0.13093,0 -0.159288,-0.005 -0.184169,-0.0335 -0.0089,-0.0101 -0.04731,-0.22689 -0.14807,-0.83594 -0.07482,-0.45223 -0.138364,-0.81964 -0.141213,-0.81645 -0.0029,0.003 -0.151334,0.37972 -0.329965,0.83675 -0.178634,0.45703 -0.329202,0.8396 -0.334591,0.85014 -0.0054,0.0105 -0.02017,0.0228 -0.03287,0.0272 -0.03315,0.0115 -0.100521,0.01 -0.127461,-0.004 z m 3.466714,0.007 c -0.434791,-0.0311 -0.772979,-0.29571 -0.888842,-0.69553 -0.0451,-0.15561 -0.04373,-0.12324 -0.04373,-1.03652 v -0.83337 l 0.02369,-0.0212 0.02372,-0.0212 h 0.148545 0.148547 l 0.02371,0.0212 0.02369,0.0212 0.0039,0.83701 0.0039,0.83701 0.0188,0.0653 c 0.06414,0.22264 0.20078,0.366 0.40873,0.42882 0.05815,0.0176 0.07686,0.0198 0.170548,0.0197 0.09587,0 0.111698,-0.002 0.177866,-0.0218 0.204578,-0.0613 0.344402,-0.2069 0.408147,-0.42517 l 0.01954,-0.0669 0.0039,-0.8346 c 0.002,-0.45903 0.0067,-0.84043 0.01017,-0.84757 0.01446,-0.0297 0.04021,-0.0342 0.193454,-0.0342 h 0.146065 l 0.02143,0.0214 0.0214,0.0214 -0.0023,0.86217 c -0.0026,0.95935 0.0014,0.88237 -0.05339,1.04724 -0.09304,0.28031 -0.316605,0.50361 -0.601477,0.60077 -0.03592,0.0123 -0.09026,0.0274 -0.120761,0.0336 -0.05619,0.0115 -0.205238,0.0269 -0.238479,0.0247 -0.01,-5.7e-4 -0.03284,-0.002 -0.0508,-0.004 z m 3.465397,-0.93617 -0.791054,-0.9415 -0.0036,0.89591 c -0.0029,0.72717 -0.0055,0.89911 -0.01329,0.91286 -0.01766,0.031 -0.04873,0.0375 -0.17952,0.0375 -0.09488,0 -0.125858,-0.003 -0.144822,-0.0115 -0.05059,-0.024 -0.04702,0.0746 -0.04702,-1.29732 0,-0.75368 0.0026,-1.24464 0.0068,-1.25555 0.01497,-0.0394 0.03412,-0.0483 0.103055,-0.0483 h 0.06358 l 0.793232,0.91752 0.793228,0.91751 0.0017,-0.88061 0.0017,-0.8806 0.02231,-0.0188 0.02229,-0.0188 0.142776,1.6e-4 c 0.153556,1.8e-4 0.161879,0.002 0.181843,0.0411 0.0059,0.0115 0.0081,0.3601 0.0081,1.26811 v 1.25226 l -0.02117,0.0237 c -0.02052,0.023 -0.02314,0.0238 -0.08527,0.0257 l -0.0641,0.002 -0.791054,-0.94151 z m 3.276705,0.93638 c -0.48173,-0.0328 -0.897929,-0.30579 -1.110453,-0.72848 -0.1762,-0.35045 -0.18158,-0.78925 -0.01411,-1.15172 0.143651,-0.31093 0.419739,-0.56624 0.736141,-0.68074 0.154319,-0.0558 0.309984,-0.0833 0.471772,-0.0833 0.242417,0 0.452235,0.0549 0.65419,0.17109 0.06174,0.0355 0.179148,0.12109 0.21863,0.15933 0.04155,0.0402 0.04815,0.0648 0.02783,0.10357 -0.01806,0.0344 -0.196055,0.20466 -0.213981,0.20466 -0.02094,0 -0.04034,-0.0105 -0.08055,-0.0434 -0.05436,-0.0446 -0.120279,-0.0863 -0.194461,-0.12326 -0.361589,-0.17996 -0.76341,-0.11733 -1.043319,0.16263 -0.339325,0.33938 -0.379947,0.87139 -0.0959,1.25599 0.201198,0.27243 0.532697,0.41227 0.860559,0.36302 0.156699,-0.0235 0.282715,-0.0783 0.445623,-0.19367 0.07806,-0.0553 0.10212,-0.0638 0.133544,-0.0473 0.01151,0.006 0.06097,0.0515 0.109863,0.10114 0.08652,0.0877 0.0889,0.091 0.0889,0.12203 0,0.0298 -0.0031,0.0349 -0.04731,0.0772 -0.142888,0.1367 -0.362312,0.25182 -0.569562,0.29883 -0.108143,0.0245 -0.278726,0.0392 -0.377383,0.0325 z m 9.288757,-0.93941 -0.794,-0.94408 -0.0036,0.90235 c -0.002,0.49629 -0.0063,0.90781 -0.0096,0.91448 -0.0033,0.007 -0.01686,0.0173 -0.03013,0.0236 -0.03308,0.0157 -0.253285,0.0166 -0.290203,10e-4 -0.05117,-0.0214 -0.04742,0.0813 -0.04742,-1.29976 0,-0.90302 0.0023,-1.24984 0.0081,-1.26133 0.01714,-0.0335 0.03534,-0.0409 0.10096,-0.0411 l 0.0619,-1.6e-4 0.790846,0.91477 0.790845,0.91477 0.0036,-0.87304 c 0.002,-0.48017 0.0063,-0.87856 0.0097,-0.88531 0.01549,-0.0314 0.0338,-0.0349 0.182268,-0.0349 h 0.141659 l 0.02369,0.0212 0.02372,0.0212 c -0.0026,0.841765 0.01055,1.686412 -0.0057,2.52676 -0.01434,0.0286 -0.05243,0.0435 -0.111183,0.0435 h -0.05149 l -0.793997,-0.94407 z m -7.203605,0.89716 c -0.0493,-0.0214 -0.04583,0.0756 -0.04583,-1.28152 0,-1.13227 8.57e-4,-1.22914 0.01209,-1.24801 0.0067,-0.0113 0.01986,-0.024 0.02937,-0.0284 0.02383,-0.0108 0.28586,-0.0105 0.309835,2.9e-4 0.04125,0.0188 0.0406,0.01 0.0406,0.56798 v 0.51236 h 1.335357 v -0.52309 -0.52309 l 0.0212,-0.0212 0.02123,-0.0212 h 0.148777 0.148776 l 0.02231,0.0223 0.02231,0.0223 c -0.0096,0.830081 0.01746,1.668266 -0.01183,2.49457 -0.02191,0.0313 -0.05077,0.0371 -0.183409,0.0371 -0.129444,0 -0.14949,-0.003 -0.174185,-0.03 -0.01517,-0.0163 -0.0152,-0.018 -0.0152,-0.55926 v -0.54293 h -1.335357 v 0.53002 c 0,0.58962 0.0014,0.5714 -0.04668,0.5915 -0.0351,0.0147 -0.265674,0.0147 -0.299389,0 z m 3.360659,-8.5e-4 c -0.01243,-0.006 -0.02632,-0.0194 -0.03084,-0.0293 -0.01387,-0.897215 -0.0082,-1.440737 -0.0082,-2.49325 l 0.02123,-0.0212 0.0212,-0.0212 h 1.526281 l 0.02123,0.0212 0.0212,0.0212 v 0.13175 0.13175 l -0.0212,0.0212 -0.02123,0.0212 h -1.18407 v 0.74025 h 0.489402 c 0.287412,0 0.496796,0.003 0.507319,0.007 0.0099,0.004 0.02477,0.0142 0.03313,0.0232 0.01426,0.0153 0.0152,0.0244 0.0152,0.14607 0,0.0751 -0.0031,0.13562 -0.0075,0.1437 -0.01937,0.0362 -0.01446,0.0359 -0.543726,0.0359 h -0.493864 v 0.78379 h 0.594462 0.594459 l 0.0188,0.0224 c 0.01863,0.0221 0.0188,0.0233 0.0188,0.14866 v 0.12633 l -0.02117,0.0237 -0.02117,0.0237 -0.75355,0.002 c -0.667307,0.001 -0.756139,2.8e-4 -0.776171,-0.01 z m -12.603412,-2.87284 c -0.07751,-0.0277 -0.136424,-0.11407 -0.135824,-0.19921 0.0014,-0.19208 0.235996,-0.27958 0.367406,-0.13702 0.08069,0.0875 0.0667,0.23034 -0.02977,0.30391 -0.01894,0.0145 -0.04676,0.03 -0.06181,0.0345 -0.0365,0.011 -0.106321,0.01 -0.139999,-0.002 z m 0.82917,-0.005 c -0.108741,-0.0491 -0.154934,-0.18073 -0.101169,-0.28832 0.0375,-0.075 0.09909,-0.11272 0.184628,-0.11295 0.122153,-2.9e-4 0.210073,0.0874 0.20995,0.2095 -8.6e-5,0.0838 -0.04506,0.15357 -0.12227,0.18952 -0.04861,0.0226 -0.123792,0.0236 -0.171139,0.002 z m -10.89332,-3.53744 v -0.15665 c 0,-0.0862 0.0022,-0.27467 0.0048,-0.41892 l 0.0048,-0.26226 0.09862,0.004 c 0.24984,0.0111 0.650066,-0.0304 0.919348,-0.0953 0.494701,-0.11915 0.85008,-0.34243 1.045664,-0.65698 0.138266,-0.22237 0.201727,-0.52408 0.165721,-0.78789 -0.07418,-0.5435 -0.432594,-0.87473 -1.110431,-1.0262001 -0.259888,-0.0581 -0.56779,-0.0902 -0.952531,-0.0993 l -0.205021,-0.005 v -0.83394 l 0.419114,0.004 c 0.474734,0.004 0.596748,0.0121 0.894471,0.0566 0.315965,0.0473 0.65188,0.14717 0.881771,0.26231 0.578155,0.28954 0.913621,0.7613401 1.004962,1.4133801 0.02232,0.15936 0.03105,0.29934 0.02579,0.41367 -0.04688,1.01871 -0.805056,1.83292 -1.884966,2.02427 -0.04671,0.008 -0.09488,0.0151 -0.107046,0.0151 -0.01216,0 -0.02211,0.003 -0.02211,0.006 0,0.003 0.0183,0.0235 0.04067,0.0454 0.06749,0.0658 2.785889,2.88925 2.788497,2.89623 0.0014,0.004 -0.06499,0.006 -0.153022,0.006 -0.08549,0 -0.356012,0.002 -0.601154,0.004 l -0.44571,0.004 c -0.93789,-0.93703 -1.875042,-1.874796 -2.812237,-2.81252 z m -15.563441,-2.10925 -0.0036,3.46277 H 13.389451 V 8.8868959 l 0.03084,0.0296 c 0.01696,0.0163 0.894653,0.8537 1.950419,1.8609701 l 1.919576,1.83141 0.0036,-3.6318401 h 0.978121 l 0.0048,0.14696 c 0.0057,2.0637341 0.0021,3.6354441 4e-4,5.8331701 -1.313518,-1.260766 -2.627095,-2.521471 -3.940669,-3.78218 z m -5.4176296,3.59696 c -1.258574,-0.10938 -2.192132,-1.07458 -2.378143,-2.45873 -0.01839,-0.13684 -0.01972,-0.16472 -0.02006,-0.41875 -4.12e-4,-0.31163 0.0099,-0.42686 0.06211,-0.69434 0.187765,-0.9618 0.780784,-1.7208601 1.592098,-2.0378701 0.341674,-0.13351 0.772779,-0.20276 1.113335,-0.17885 0.560087,0.0393 1.0610596,0.25232 1.4701016,0.62502 0.08879,0.0809 0.249926,0.2515 0.274083,0.29018 0.05668,-0.2231322 0.0274,-0.4018638 0.0274,-0.7692 h 0.943458 v 5.5010901 h -0.943458 c 0.0025,-0.249119 -6.1e-5,-0.513362 -0.0097,-0.75477 -0.0053,0 -0.02068,0.0139 -0.03412,0.0309 -0.106344,0.13414 -0.314707,0.33038 -0.467653,0.44045 -0.454089,0.32678 -1.0301766,0.47701 -1.6294766,0.42492 z m 0.569851,-0.8851 c 0.8400456,-0.13458 1.3900526,-0.76873 1.5108566,-1.742 0.01795,-0.14463 0.01779,-0.47045 -2.86e-4,-0.60599 -0.05578,-0.41798 -0.194595,-0.76147 -0.422321,-1.04502 -0.275454,-0.34297 -0.6547836,-0.5546001 -1.1117126,-0.6202201 -0.221788,-0.0319 -0.380399,-0.0309 -0.585445,0.004 -0.714514,0.12 -1.272342,0.6945401 -1.440747,1.4838901 -0.03669,0.17196 -0.04721,0.27766 -0.04698,0.47173 9.8e-4,0.81061 0.357439,1.51696 0.9351,1.85297 0.203398,0.11831 0.443411,0.19339 0.700554,0.21915 0.111797,0.0112 0.332261,0.003 0.46099,-0.0181 z M 33.719333,9.1493659 c 0.355576,-0.024988 0.543898,-0.012698 1.039459,-0.01267 l 1.378669,3.2868501 0.0118,-0.0305 c 0.151168,-0.39042 1.476036,-3.7908401 1.477922,-3.7932501 0.0014,-0.002 0.0053,8.6e-4 0.0085,0.006 0.50973,1.3385156 0.880986,2.3930721 1.430832,3.8093401 0.515355,-1.155038 0.907157,-2.035393 1.46083,-3.2784501 0.338952,1.921e-4 0.721719,-0.00472 1.039404,0.0127 -0.01326,0.0361 -2.548398,5.6333901 -2.551484,5.6333801 -0.498332,-1.320519 -0.878222,-2.355283 -1.404362,-3.75916 -0.518906,1.320385 -0.906327,2.359266 -1.464484,3.75913 -0.0032,1.1e-4 -0.01026,-0.0104 -0.01572,-0.0234 -0.84727,-1.974004 -1.514926,-3.515044 -2.411366,-5.6099701 z m 10.680993,5.6260501 c -1.005844,-0.0787 -1.820359,-0.6545 -2.217114,-1.56734 -0.107378,-0.24704 -0.181015,-0.51873 -0.223053,-0.82296 -0.02272,-0.16445 -0.02317,-0.17295 -0.02309,-0.44345 8e-5,-0.25411 0.0017,-0.28834 0.01952,-0.43573 0.06249,-0.51418 0.208253,-0.95941 0.436837,-1.33432 0.157957,-0.2590701 0.300035,-0.4256001 0.532654,-0.6243201 0.180735,-0.15439 0.439097,-0.30434 0.683076,-0.39644 0.329817,-0.1245 0.761871,-0.1892 1.118325,-0.16747 0.572415,0.0349 1.033116,0.19983 1.437189,0.51448 0.501184,0.39028 0.845241,1.0065501 0.971328,1.7398401 0.03728,0.21684 0.05104,0.39546 0.05104,0.66256 v 0.21195 c -1.414468,0.0098 -2.83293,-0.01647 -4.245558,0.009 5e-6,0.005 0.0033,0.045 0.0073,0.0889 0.0434,0.47385 0.212464,0.85579 0.511034,1.15452 0.306935,0.3071 0.686656,0.46824 1.161723,0.49301 0.113589,0.006 0.273294,-0.0103 0.422799,-0.043 0.384569,-0.0841 0.721343,-0.31607 1.006155,-0.693 0.07213,-0.0955 0.180229,-0.26036 0.239768,-0.36576 l 0.01969,-0.0349 0.02306,0.0136 c 0.285409,0.164531 0.510607,0.293849 0.809014,0.46973 0.0076,0.007 8e-5,0.0253 -0.03895,0.0951 -0.210067,0.37545 -0.490996,0.70341 -0.805075,0.93986 -0.389132,0.29295 -0.844364,0.46921 -1.35764,0.52565 -0.12301,0.0135 -0.426045,0.0194 -0.540052,0.0105 z m 1.741592,-3.52501 c -7.4e-5,-0.003 -0.01111,-0.0479 -0.0246,-0.0998 -0.189629,-0.7294 -0.817989,-1.2446901 -1.517529,-1.2444501 -0.415213,1.4e-4 -0.828678,0.1783901 -1.143425,0.4929601 -0.230725,0.2306 -0.381784,0.50148 -0.452452,0.81136 l -0.01034,0.0454 c 1.049419,-7.83e-4 2.099039,0.0025 3.148347,-0.005 z m -26.503867,0.59692 V 8.9770359 h 0.661044 c 0.702263,0 0.848129,0.004 1.113384,0.0333 0.438404,0.0478 0.878323,0.17168 1.22437,0.34483 0.42705,0.21368 0.797415,0.54141 1.042408,0.9224001 0.250801,0.39001 0.392166,0.85603 0.422713,1.3935 0.0107,0.18815 7.43e-4,0.38866 -0.03092,0.62263 -0.111582,0.82459 -0.519361,1.48055 -1.183428,1.90369 -0.474928,0.30262 -1.082041,0.47578 -1.798093,0.51285 -0.07784,0.004 -0.436259,0.007 -0.796497,0.007 l -0.654978,7e-5 c -4e-6,-0.956389 7e-6,-1.914686 -3e-6,-2.86998 z m 1.342614,2.02094 c 1.151298,-0.0714 1.866291,-0.51044 2.121212,-1.30259 0.138096,-0.42911 0.138096,-1.00759 0,-1.43671 -0.134988,-0.41947 -0.39543,-0.73599 -0.790146,-0.96029 C 21.913041,9.9421059 21.3451,9.8188859 20.699566,9.8188859 h -0.161601 v 4.0568701 h 0.161477 c 0.08881,0 0.215363,-0.003 0.281223,-0.007 z m 4.172991,-4.8912301 h 3.287591 v 0.87088 H 26.11163 v 1.3426101 h 2.257043 v 0.87815 H 26.11163 v 1.69097 h 2.329617 v 0.87088 h -3.287591 z m 27.593822,1.4847301 c 0.0014,-2.2928201 0.0043,-4.1706801 0.0066,-4.1730401 0.355256,-0.00928 0.626043,-0.010194 1.008098,-0.014 0.0011,1.59285 0.0023,3.1857001 0.0034,4.7785501 0.734425,-0.631661 1.468846,-1.2633255 2.203268,-1.8949901 0.458857,-9.75e-5 0.918774,-0.00174 1.377038,0.006 -1.003448,0.9001801 -1.803322,1.5861791 -2.864992,2.5458201 1.003868,1.028018 1.799191,1.821444 2.864992,2.9133 -0.487607,0.01085 -0.837155,0.0071 -1.374064,0.0073 l -2.202236,-2.2106 -3.77e-4,2.20987 h -1.024356 l 0.0023,-4.16876 z m -4.297649,1.41459 V 9.1294359 h 0.533417 0.533418 v 0.28318 0.28317 l 0.06668,-0.0781 c 0.08541,-0.10012 0.270466,-0.28567 0.336108,-0.33701 0.197018,-0.15408 0.390578,-0.24101 0.620505,-0.27867 0.03393,-0.006 0.112973,-0.0138 0.175655,-0.0183 0.32579,-0.0235 0.640389,0.0505 1.009323,0.23735 l 0.05646,0.0286 -0.254433,0.44575 c -0.139942,0.24516 -0.255634,0.4469501 -0.257097,0.4484101 -0.0014,0.001 -0.04867,-0.0269 -0.104898,-0.063 -0.130364,-0.0837 -0.209752,-0.1265701 -0.277337,-0.1496201 -0.231913,-0.0791 -0.542649,-0.0363 -0.773871,0.1066601 -0.08729,0.054 -0.215327,0.18196 -0.280249,0.28019 -0.184911,0.27974 -0.28322,0.66548 -0.309327,1.21369 -0.0045,0.095 -0.0075,0.72962 -0.0075,1.62383 l -4.3e-5,1.46781 h -0.533417 -0.533417 z"
       id="path2892"
       sodipodi:nodetypes="cccccccccsccsccccsccscscsccscscscscccccsscccccccccccccscccsccccccccccccccscscscccccccscscccccccsscscccsccssccccsccccccccscscccccccsccccsccccscccscccccccccccscsccscccccccccccccccccsccscscccccsccccccccccccccccsccccsccccsscccccccsccssccsccccccccccccccccsccccscccccccccccsccccccsscccccccccccccccccssscssssssscccsccccccccscccccssccccccscscccscccccsscsccsccccccccccccccccccccccccccccccccccccsccscscsscccccccc" />
  </g>
</svg>
